# xmcd
#
# Track frame offsets: 
#        187
#        16350
#        38550
#        54712
#
# Disc length: 1346 seconds
#
# Revision: 1
# Processed by: cddbd v1.5.2PL0 Copyright (c) Steve Scherf et al.
# Submitted via: ExactAudioCopyFreeDBPlugin 1.0
#
DISCID=29054004
DTITLE=小泉今日子 - 見逃してくれよ！
DYEAR=1990
DGENRE=JPop
TTITLE0=見逃してくれよ！
TTITLE1=クノール「カップスープ」名作CMスーパーリミックス
TTITLE2=見逃してくれよ！(カラオケ)
TTITLE3=Making of クノール「カップスープ」名作CMスーパーリミックス
EXTD=YEAR: 1990
EXTT0=
EXTT1=
EXTT2=
EXTT3=
PLAYORDER=
